<svg width="65" height="65" viewBox="0 0 65 65" fill="none" xmlns="http://www.w3.org/2000/svg">
<circle cx="32.5" cy="32.5" r="32" fill="#F2F2F2"/>
<g clip-path="url(#clip0_1787_27)">
<path d="M34.575 26.6687C31.5312 26.7812 23.9812 27.6375 23.9812 34.0125C23.9812 40.8563 32.625 41.1375 35.45 36.7125C35.8562 37.35 37.6625 39.0563 38.2812 39.6375L41.8312 36.1375C41.8312 36.1375 39.8125 34.5562 39.8125 32.8375V23.6438C39.8125 22.0625 38.2812 18.5 32.7937 18.5C27.2937 18.5 24.375 21.9375 24.375 25.0188L28.9687 25.4438C29.9875 22.35 32.3562 22.35 32.3562 22.35C34.9 22.3438 34.575 24.2125 34.575 26.6687ZM34.575 32.0938C34.575 37.0938 29.3125 36.3438 29.3125 33.1688C29.3125 30.2188 32.4687 29.625 34.575 29.5562V32.0938ZM43.075 42.3125C42.5937 42.9375 38.7 46.5 32.1687 46.5C25.6375 46.5 20.6375 42.0312 19.1062 40.1875C18.6812 39.7062 19.1687 39.4813 19.45 39.6688C24.0312 42.45 31.1875 47.0312 42.7312 41.5625C43.2 41.3312 43.5625 41.6875 43.075 42.3125ZM45.5625 42.45C45.1562 43.4375 44.5625 44.125 44.2375 44.3875C43.8937 44.6688 43.6437 44.5562 43.8312 44.15C44.0187 43.7437 45.0375 41.2437 44.625 40.7125C44.2187 40.1938 42.3125 40.4438 41.625 40.5125C40.95 40.575 40.8125 40.6375 40.75 40.4937C40.6062 40.1375 42.1062 39.525 43.0937 39.4C44.075 39.2875 45.6562 39.35 45.9687 39.7563C46.2 40.075 45.9687 41.45 45.5625 42.45Z" fill="black"/>
</g>
<defs>
<clipPath id="clip0_1787_27">
<rect width="28" height="32" fill="white" transform="translate(18.5 16.5)"/>
</clipPath>
</defs>
</svg>
